<svg width="14" height="14" viewBox="0 0 14 14" fill="none" xmlns="http://www.w3.org/2000/svg">
<path d="M6.99985 3.55566C8.84555 3.55566 10.369 5.0791 10.369 6.9248C10.369 8.7998 8.84555 10.2939 6.99985 10.2939C5.12485 10.2939 3.63071 8.7998 3.63071 6.9248C3.63071 5.0791 5.12485 3.55566 6.99985 3.55566ZM6.99985 9.12207C8.20102 9.12207 9.16782 8.15527 9.16782 6.9248C9.16782 5.72363 8.20102 4.75684 6.99985 4.75684C5.76938 4.75684 4.80259 5.72363 4.80259 6.9248C4.80259 8.15527 5.79868 9.12207 6.99985 9.12207ZM11.2772 3.43848C11.2772 3.87793 10.9256 4.22949 10.4862 4.22949C10.0467 4.22949 9.69516 3.87793 9.69516 3.43848C9.69516 2.99902 10.0467 2.64746 10.4862 2.64746C10.9256 2.64746 11.2772 2.99902 11.2772 3.43848ZM13.5038 4.22949C13.5624 5.31348 13.5624 8.56543 13.5038 9.64941C13.4452 10.7041 13.2108 11.6123 12.4491 12.4033C11.6874 13.165 10.7499 13.3994 9.69516 13.458C8.61118 13.5166 5.35923 13.5166 4.27524 13.458C3.22055 13.3994 2.31235 13.165 1.52134 12.4033C0.759617 11.6123 0.525242 10.7041 0.466649 9.64941C0.408055 8.56543 0.408055 5.31348 0.466649 4.22949C0.525242 3.1748 0.759617 2.2373 1.52134 1.47559C2.31235 0.713867 3.22055 0.479492 4.27524 0.420898C5.35923 0.362305 8.61118 0.362305 9.69516 0.420898C10.7499 0.479492 11.6874 0.713867 12.4491 1.47559C13.2108 2.2373 13.4452 3.1748 13.5038 4.22949ZM12.0975 10.792C12.4491 9.94238 12.3612 7.8916 12.3612 6.9248C12.3612 5.9873 12.4491 3.93652 12.0975 3.05762C11.8631 2.50098 11.4237 2.03223 10.867 1.82715C9.98813 1.47559 7.93735 1.56348 6.99985 1.56348C6.03305 1.56348 3.98227 1.47559 3.13266 1.82715C2.54673 2.06152 2.10727 2.50098 1.8729 3.05762C1.52134 3.93652 1.60923 5.9873 1.60923 6.9248C1.60923 7.8916 1.52134 9.94238 1.8729 10.792C2.10727 11.3779 2.54673 11.8174 3.13266 12.0518C3.98227 12.4033 6.03305 12.3154 6.99985 12.3154C7.93735 12.3154 9.98813 12.4033 10.867 12.0518C11.4237 11.8174 11.8924 11.3779 12.0975 10.792Z" fill="white"/>
<a href="https://www.figma.com/design/PTiraZG58X0MF43VpwSv68/65%2B-Real-Estate-Website-Templates-(Community)?node-id=2-484">
<rect fill="black" fill-opacity="0" x="-0.282375" y="-1.125" width="13.125" height="17.25"/>
</a>
</svg>
