<svg width="14" height="14" viewBox="0 0 14 14" fill="none" xmlns="http://www.w3.org/2000/svg">
<path d="M3.54794 13.5498H0.823332V4.79004H3.54794V13.5498ZM2.17099 3.61816C1.32138 3.61816 0.618254 2.88574 0.618254 2.00684C0.618254 1.15723 1.32138 0.454102 2.17099 0.454102C3.04989 0.454102 3.75302 1.15723 3.75302 2.00684C3.75302 2.88574 3.04989 3.61816 2.17099 3.61816ZM13.714 13.5498H11.0186V9.30176C11.0186 8.27637 10.9893 6.9873 9.5831 6.9873C8.17685 6.9873 7.97177 8.07129 7.97177 9.21387V13.5498H5.24716V4.79004H7.85458V5.99121H7.88388C8.26474 5.31738 9.14364 4.58496 10.462 4.58496C13.2159 4.58496 13.7433 6.40137 13.7433 8.74512V13.5498H13.714Z" fill="white"/>
<a href="https://www.figma.com/design/PTiraZG58X0MF43VpwSv68/65%2B-Real-Estate-Website-Templates-(Community)?node-id=2-484">
<rect fill="black" fill-opacity="0" x="0.178312" y="-1.125" width="13.125" height="17.25"/>
</a>
</svg>
