<svg width="16" height="14" viewBox="0 0 16 14" fill="none" xmlns="http://www.w3.org/2000/svg">
<path d="M13.7631 3.87793C13.7631 4.02441 13.7631 4.1416 13.7631 4.28809C13.7631 8.36035 10.6869 13.0186 5.03261 13.0186C3.2748 13.0186 1.66347 12.5205 0.315814 11.6416C0.550189 11.6709 0.784564 11.7002 1.04824 11.7002C2.48378 11.7002 3.80214 11.2021 4.85683 10.3818C3.50917 10.3525 2.3666 9.47363 1.98574 8.24316C2.19081 8.27246 2.3666 8.30176 2.57167 8.30176C2.83535 8.30176 3.12831 8.24316 3.36269 8.18457C1.95644 7.8916 0.901752 6.66113 0.901752 5.16699V5.1377C1.31191 5.37207 1.80996 5.48926 2.308 5.51855C1.45839 4.96191 0.931049 4.02441 0.931049 2.96973C0.931049 2.38379 1.07753 1.85645 1.34121 1.41699C2.86464 3.2627 5.1498 4.49316 7.69863 4.63965C7.64003 4.40527 7.61074 4.1709 7.61074 3.93652C7.61074 2.2373 8.98769 0.860352 10.6869 0.860352C11.5658 0.860352 12.3568 1.21191 12.9428 1.82715C13.6166 1.68066 14.2904 1.41699 14.8764 1.06543C14.642 1.79785 14.1732 2.38379 13.5287 2.76465C14.1439 2.70605 14.7592 2.53027 15.2865 2.2959C14.8764 2.91113 14.349 3.43848 13.7631 3.87793Z" fill="white"/>
<a href="https://www.figma.com/design/PTiraZG58X0MF43VpwSv68/65%2B-Real-Estate-Website-Templates-(Community)?node-id=2-484">
<rect fill="black" fill-opacity="0" x="-0.744" y="-1.125" width="15" height="17.25"/>
</a>
</svg>
